<?xml version="1.0" standalone="no"?>
<!DOCTYPE svg PUBLIC "-//W3C//DTD SVG 20010904//EN"
 "http://www.w3.org/TR/2001/REC-SVG-20010904/DTD/svg10.dtd">
<svg version="1.0" xmlns="http://www.w3.org/2000/svg"
 width="1588.000000pt" height="1592.000000pt" viewBox="0 0 1588.000000 1592.000000"
 preserveAspectRatio="xMidYMid meet">

<g transform="translate(0.000000,1592.000000) scale(0.100000,-0.100000)"
fill="#000000" stroke="none">
<path d="M0 7960 l0 -7960 7940 0 7940 0 0 7960 0 7960 -7940 0 -7940 0 0
-7960z m8280 4206 c432 -76 800 -268 1121 -586 199 -198 354 -413 444 -620
108 -246 138 -369 161 -650 23 -275 12 -408 -50 -622 -146 -502 -591 -984
-1166 -1265 -320 -156 -432 -207 -595 -273 -209 -84 -212 -85 -328 -139 -49
-23 -91 -41 -94 -41 -3 0 -19 -6 -36 -14 -18 -8 -57 -26 -87 -39 -30 -14 -85
-39 -123 -56 -37 -17 -70 -31 -73 -31 -11 0 -505 -249 -565 -285 -122 -73
-329 -235 -431 -337 -140 -140 -216 -235 -301 -380 -133 -225 -179 -350 -228
-608 -26 -137 -29 -465 -6 -582 50 -248 152 -432 341 -610 165 -156 399 -285
618 -339 111 -28 278 -38 768 -45 692 -12 882 18 1230 193 295 149 472 306
623 555 77 126 126 238 167 383 42 151 51 223 50 415 -1 232 -20 359 -80 540
-49 144 -85 227 -152 344 -123 214 -351 443 -541 544 -92 49 -373 151 -502
182 -83 20 -87 22 -79 30 5 4 36 15 69 25 166 47 452 186 644 313 l83 55 82
-33 c162 -65 310 -165 458 -308 172 -167 324 -379 444 -622 76 -153 104 -231
148 -408 120 -484 113 -918 -21 -1337 -36 -114 -141 -344 -190 -418 -15 -23
-34 -54 -42 -69 -54 -106 -289 -369 -428 -481 -110 -88 -343 -248 -413 -283
-263 -130 -451 -195 -733 -254 -82 -17 -160 -22 -455 -30 -495 -13 -866 5
-1042 51 -19 5 -75 18 -125 30 -244 56 -389 107 -565 197 -346 178 -516 317
-669 545 -116 173 -198 364 -255 593 -33 130 -44 186 -78 389 -8 52 -13 167
-13 325 0 240 1 248 32 386 43 188 65 266 98 344 150 355 321 608 586 866 252
246 426 368 799 561 190 99 531 255 675 309 50 19 99 38 110 43 52 24 360 158
440 191 220 92 512 235 670 328 81 48 266 186 339 253 81 74 221 265 264 360
62 138 77 221 77 449 0 182 -2 201 -28 295 -62 223 -161 396 -325 567 -143
148 -348 279 -587 373 -161 63 -243 82 -490 111 -221 26 -1140 22 -1293 -6
-62 -11 -75 -11 -82 0 -28 46 -19 359 13 432 30 71 174 155 327 189 77 17 434
27 900 24 317 -2 414 -5 490 -19z m-2200 -643 c-1 -258 2 -1087 5 -1843 5
-1110 3 -1378 -7 -1391 -7 -9 -49 -42 -93 -74 -108 -79 -175 -140 -286 -265
-97 -108 -204 -240 -212 -262 -3 -10 -8 -10 -16 -2 -26 24 -38 3601 -13 3698
13 52 109 199 190 293 72 84 206 194 310 255 53 32 103 58 110 58 9 0 12 -100
12 -467z m827 -674 c23 -11 65 -46 92 -76 l51 -56 672 -3 c370 -1 686 -5 701
-8 24 -6 34 0 70 40 83 92 195 118 294 69 99 -50 203 -190 203 -276 0 -39 -39
-107 -86 -151 -77 -70 -180 -90 -282 -53 -52 19 -88 51 -136 120 -17 24 -23
26 -59 21 -73 -12 -1246 -7 -1316 5 -62 11 -66 11 -81 -10 -67 -97 -128 -139
-215 -148 -200 -21 -363 191 -286 370 65 152 237 222 378 156z m5 -819 c24
-12 66 -44 93 -71 l51 -49 702 -1 703 0 41 46 c63 72 106 90 213 90 85 0 93
-2 142 -33 59 -37 93 -79 93 -113 0 -48 -93 -191 -186 -286 -87 -90 -92 -93
-135 -93 -60 0 -129 36 -150 77 -9 18 -21 39 -28 46 -9 11 -119 15 -568 20
-307 4 -622 10 -700 14 -108 5 -143 3 -143 -6 0 -21 -78 -118 -112 -139 -57
-35 -113 -45 -172 -31 -108 25 -178 78 -218 166 -75 165 1 324 182 384 43 14
146 3 192 -21z m3 -811 c22 -12 58 -37 81 -55 l41 -34 274 -1 c151 -1 321 -4
379 -8 l105 -6 -65 -32 c-143 -70 -241 -110 -478 -199 -35 -13 -86 -27 -113
-30 -40 -5 -69 -20 -141 -71 -125 -88 -182 -116 -243 -116 -59 -1 -95 16 -152
73 -64 64 -78 101 -78 200 1 67 6 94 22 125 22 42 92 113 134 136 79 42 174
50 234 18z m1920 -1908 c64 -30 107 -70 148 -137 55 -89 45 -156 -39 -257 -74
-90 -116 -111 -219 -111 -70 -1 -86 3 -132 28 -33 18 -65 47 -87 78 l-34 50
-713 1 -712 1 -29 -42 c-32 -47 -94 -87 -150 -96 -98 -17 -219 67 -145 101 22
10 88 62 222 173 37 30 80 65 96 76 60 45 120 48 791 40 l627 -7 44 46 c61 62
115 85 202 85 57 0 81 -5 130 -29z m-1945 -777 c43 -13 66 -28 113 -77 l58
-62 442 0 c243 0 564 -4 712 -9 l270 -9 15 28 c25 47 99 104 158 121 98 29
190 2 271 -79 55 -55 80 -114 80 -192 1 -75 -23 -130 -82 -189 -93 -92 -191
-117 -291 -72 -79 35 -119 67 -143 113 l-20 38 -689 1 c-379 1 -699 3 -712 5
-19 3 -28 -5 -51 -46 -51 -92 -171 -148 -269 -124 -104 26 -171 77 -212 164
-63 131 -30 257 90 346 74 56 166 71 260 43z m-22 -848 c68 -18 96 -36 152
-97 l45 -49 707 -2 707 -3 15 26 c48 82 123 123 226 123 82 1 113 -11 187 -70
155 -126 109 -374 -88 -474 -52 -27 -140 -30 -184 -6 -16 9 -36 16 -43 16 -20
0 -110 95 -114 120 l-3 22 -655 4 c-360 3 -680 5 -710 7 l-54 2 -27 -56 c-30
-63 -60 -88 -140 -119 -99 -40 -203 -12 -292 77 -65 64 -90 122 -90 203 0 76
19 124 69 180 45 49 91 79 152 95 62 17 77 17 140 1z"/>
</g>
</svg>
