<?xml version="1.0" standalone="no"?>
<!DOCTYPE svg PUBLIC "-//W3C//DTD SVG 20010904//EN"
 "http://www.w3.org/TR/2001/REC-SVG-20010904/DTD/svg10.dtd">
<svg version="1.0" xmlns="http://www.w3.org/2000/svg"
 width="1020.000000pt" height="850.000000pt" viewBox="0 0 1020.000000 850.000000"
 preserveAspectRatio="xMidYMid meet">

<g transform="translate(0.000000,850.000000) scale(0.100000,-0.100000)"
fill="#000000" stroke="none">
<path d="M468 4452 c-79 -38 -123 -103 -123 -182 0 -73 35 -127 136 -210 41
-34 94 -79 119 -100 25 -21 158 -131 295 -245 138 -114 257 -215 266 -224 9
-9 30 -27 48 -41 17 -14 44 -36 60 -50 37 -32 68 -58 115 -95 21 -16 50 -41
66 -55 31 -28 27 -25 365 -306 138 -114 257 -214 266 -223 9 -9 31 -27 49 -41
19 -14 43 -34 54 -46 12 -11 28 -25 37 -30 16 -9 119 -95 199 -168 8 -8 47
-39 85 -70 39 -31 93 -76 120 -100 28 -24 199 -166 380 -316 182 -150 339
-282 350 -292 11 -11 52 -45 90 -76 79 -65 97 -80 163 -139 26 -24 50 -43 54
-43 4 0 20 -11 35 -25 15 -14 39 -36 53 -49 14 -12 81 -68 150 -125 69 -56
134 -110 145 -120 11 -10 117 -98 235 -196 118 -98 222 -184 230 -192 8 -7 60
-50 115 -96 106 -87 131 -108 169 -145 13 -12 26 -22 29 -22 3 0 23 -11 43
-25 52 -35 136 -35 188 0 20 14 40 25 43 25 3 0 17 11 32 25 49 48 67 63 396
334 182 150 335 278 340 285 6 6 44 38 85 70 41 33 84 67 95 77 63 58 85 77
116 101 20 15 48 39 65 53 16 13 40 34 54 45 14 12 37 31 51 43 15 12 37 31
50 42 13 11 56 46 94 77 39 31 79 65 90 75 11 10 157 132 325 271 168 140 327
272 354 295 73 63 95 81 171 143 72 58 83 67 125 106 13 13 56 49 95 80 102
83 166 137 200 167 17 15 135 113 564 469 24 21 54 46 65 58 12 11 44 38 71
60 54 41 69 54 116 94 16 14 43 36 60 50 18 14 39 32 48 41 9 9 129 110 266
224 138 114 270 224 295 245 25 21 78 66 119 100 101 84 136 138 135 210 -2
83 -46 149 -124 184 l-58 26 -326 0 c-371 0 -322 10 -453 -95 -61 -49 -184
-145 -313 -245 -36 -27 -72 -55 -79 -62 -8 -7 -38 -29 -65 -50 -71 -53 -95
-71 -114 -88 -10 -8 -44 -35 -77 -60 -33 -25 -66 -51 -75 -58 -30 -25 -147
-117 -174 -137 -16 -11 -58 -44 -95 -72 -96 -77 -112 -89 -156 -122 -79 -60
-87 -66 -116 -91 -15 -14 -46 -38 -68 -55 -23 -16 -52 -39 -66 -50 -13 -11
-53 -41 -87 -68 -35 -26 -104 -80 -154 -120 -50 -39 -106 -83 -124 -97 -18
-14 -49 -37 -69 -52 -36 -28 -76 -59 -115 -90 -39 -32 -111 -89 -131 -103 -25
-19 -124 -96 -247 -192 -51 -40 -122 -95 -158 -123 -101 -77 -111 -85 -177
-139 -34 -28 -66 -51 -71 -51 -5 0 -18 -10 -29 -23 -12 -12 -43 -38 -70 -57
-26 -19 -55 -40 -63 -47 -29 -25 -271 -215 -433 -340 -23 -18 -49 -40 -58 -48
-9 -8 -20 -15 -24 -15 -5 0 -18 -9 -30 -19 -60 -58 -79 -72 -126 -95 -28 -15
-68 -26 -89 -26 -59 0 -152 51 -213 118 -11 12 -26 22 -32 22 -6 0 -18 8 -27
18 -9 9 -34 30 -55 45 -21 15 -79 60 -130 100 -50 40 -135 106 -187 147 -53
41 -127 99 -164 128 -37 29 -76 59 -87 67 -33 25 -158 122 -185 144 -14 11
-54 43 -90 71 -36 28 -107 83 -158 123 -123 96 -222 173 -247 192 -11 8 -39
29 -61 47 -23 18 -56 44 -74 58 -18 14 -42 33 -54 42 -21 18 -66 53 -126 98
-18 14 -74 58 -124 97 -50 40 -119 94 -154 120 -34 27 -76 59 -92 73 -15 14
-45 36 -65 50 -20 14 -49 36 -65 50 -28 25 -35 31 -115 91 -42 32 -51 39 -157
122 -36 28 -81 63 -99 77 -94 72 -156 120 -169 132 -9 7 -42 33 -75 58 -33 25
-67 52 -77 60 -19 17 -43 35 -114 88 -27 21 -57 43 -65 50 -7 7 -43 35 -79 62
-129 100 -252 196 -313 245 -131 105 -82 95 -454 95 l-328 0 -57 -28z"/>
</g>
</svg>
