<?xml version="1.0" standalone="no"?>
<!DOCTYPE svg PUBLIC "-//W3C//DTD SVG 20010904//EN"
 "http://www.w3.org/TR/2001/REC-SVG-20010904/DTD/svg10.dtd">
<svg version="1.0" xmlns="http://www.w3.org/2000/svg"
 width="3000.000000pt" height="1000.000000pt" viewBox="0 0 3000.000000 1000.000000"
 preserveAspectRatio="xMidYMid meet">

<g transform="translate(0.000000,1000.000000) scale(0.100000,-0.100000)"
fill="#000000" stroke="none">
<path d="M4810 9290 c0 -6 -29 -10 -67 -10 -266 -1 -835 -86 -1203 -181 -248
-64 -590 -176 -750 -244 -329 -141 -457 -203 -661 -321 -1060 -609 -1772
-1488 -2022 -2494 -224 -902 -51 -1834 494 -2652 275 -413 705 -849 1114
-1128 127 -87 184 -168 193 -275 5 -65 2 -77 -199 -782 -38 -133 -69 -259 -69
-279 0 -55 27 -101 77 -131 37 -21 52 -25 101 -21 50 5 85 21 292 135 641 353
931 510 993 536 51 21 91 30 155 34 81 5 102 1 312 -51 555 -137 1055 -193
1634 -183 314 5 521 20 785 57 1415 200 2647 857 3418 1823 658 823 912 1819
713 2792 -27 131 -81 325 -125 448 -77 214 -227 520 -349 710 l-37 57 -32 -16
c-35 -18 -587 -321 -1057 -579 -282 -155 -458 -252 -1140 -625 -309 -169 -893
-489 -1450 -795 -298 -164 -753 -413 -1295 -710 -148 -81 -404 -222 -569 -312
-401 -222 -409 -226 -505 -226 -66 -1 -87 4 -143 30 -123 58 -100 20 -459 768
-66 138 -533 1111 -613 1275 -65 135 -56 206 35 268 28 20 44 23 94 20 60 -4
61 -5 408 -238 191 -129 454 -307 585 -396 276 -186 325 -208 471 -207 122 0
112 -3 571 193 74 32 207 88 295 125 134 56 368 155 750 317 39 16 95 40 125
53 30 13 172 73 315 133 143 60 364 154 490 207 363 154 467 197 675 285 200
85 343 145 745 315 248 105 337 143 745 315 146 62 294 124 330 140 36 15 111
47 168 70 56 24 102 47 102 51 0 5 -69 77 -153 161 -708 710 -1672 1205 -2772
1422 -249 49 -582 92 -798 102 -76 4 -140 11 -143 16 -8 12 -574 10 -574 -2z"/>
<path d="M23647 9223 c-4 -3 -7 -136 -7 -295 l0 -288 -915 0 -915 0 0 -125 0
-125 915 0 915 0 0 -370 0 -370 -590 0 -590 0 0 -121 0 -121 47 -86 c255 -476
580 -893 948 -1215 44 -39 81 -74 83 -77 4 -10 -212 -131 -383 -215 -360 -176
-748 -307 -1187 -400 l-78 -16 31 -52 c16 -29 48 -85 70 -124 23 -40 44 -75
47 -77 9 -5 189 42 352 94 433 136 893 343 1259 567 l104 64 126 -84 c367
-245 776 -433 1216 -561 215 -62 283 -79 294 -72 16 11 102 179 97 192 -3 7
-20 15 -38 19 -101 22 -550 178 -738 257 -248 104 -755 376 -755 405 0 6 52
52 115 103 294 239 568 555 770 890 101 168 263 502 249 514 -2 1 -47 27 -99
57 l-94 54 -493 5 -494 5 0 365 0 365 921 3 920 2 0 125 0 125 -921 2 -920 3
1 276 c0 152 -2 283 -6 292 -5 15 -24 17 -128 17 -68 0 -126 -3 -129 -7z
m1133 -1809 c0 -17 -114 -231 -173 -324 -183 -290 -418 -549 -711 -784 -153
-123 -139 -121 -233 -45 -281 229 -543 517 -738 814 -70 106 -195 322 -195
338 0 4 461 7 1025 7 564 0 1025 -3 1025 -6z"/>
<path d="M19738 9157 c-59 -34 -108 -66 -108 -70 0 -5 47 -103 105 -219 58
-115 103 -214 99 -219 -3 -5 -297 -9 -705 -9 l-699 0 0 -125 0 -125 1465 0
1465 0 0 125 0 125 -685 0 c-377 0 -685 3 -685 8 0 4 23 21 52 37 28 17 51 34
51 38 -1 20 -229 496 -238 496 -5 0 -58 -28 -117 -62z"/>
<path d="M18146 9202 c-2 -4 -20 -61 -39 -127 -184 -623 -482 -1272 -810
-1765 -39 -58 -70 -109 -70 -115 0 -5 30 -61 68 -124 l68 -115 18 23 c36 44
208 319 295 470 l89 155 3 -1237 2 -1238 128 3 127 3 5 1515 5 1515 41 85
c100 208 320 807 303 825 -16 15 -230 132 -233 127z"/>
<path d="M26925 9201 c-2 -5 -21 -62 -41 -127 -198 -654 -464 -1236 -808
-1764 l-75 -115 35 -60 c19 -33 49 -86 67 -117 18 -32 35 -58 39 -58 14 0 253
379 364 577 16 29 32 53 37 53 4 0 7 -554 7 -1230 l0 -1231 125 3 125 3 0
1493 0 1494 54 121 c106 241 306 778 306 821 0 14 -228 147 -235 137z"/>
<path d="M13307 9167 c-8 -12 -47 -83 -87 -157 -163 -302 -357 -568 -576 -791
-52 -52 -94 -102 -94 -109 0 -7 30 -65 66 -128 l67 -114 64 64 c256 251 581
706 762 1065 l31 63 -22 14 c-13 7 -62 37 -110 65 l-88 51 -13 -23z"/>
<path d="M15687 9068 c-70 -304 -166 -615 -285 -919 -64 -161 -221 -478 -300
-603 l-24 -39 21 -36 c11 -20 45 -78 73 -128 29 -51 55 -93 58 -93 3 0 43 74
89 165 46 91 88 165 92 165 5 0 9 -11 9 -24 0 -14 13 -110 30 -214 62 -399
154 -742 274 -1019 l35 -82 -75 -113 c-133 -199 -321 -415 -539 -618 -60 -57
-111 -106 -113 -110 -2 -6 119 -225 132 -237 9 -9 192 166 325 311 154 167
241 276 328 409 36 53 66 97 68 97 1 0 21 -31 43 -69 52 -87 193 -280 289
-396 111 -133 325 -365 337 -365 6 0 42 55 80 121 l69 121 -49 43 c-71 62
-293 307 -386 427 -89 112 -196 271 -224 331 l-18 38 38 77 c195 391 339 989
392 1627 9 110 18 206 20 213 2 9 35 12 119 12 l115 0 0 120 0 120 -476 0
-475 0 7 23 c4 12 24 76 45 142 81 256 149 531 149 600 l0 25 -123 0 -123 0
-27 -122z m543 -953 c0 -93 -51 -526 -85 -717 -53 -302 -114 -531 -210 -785
-15 -40 -31 -70 -36 -67 -5 3 -29 69 -53 147 -88 280 -147 548 -201 917 -54
375 -54 361 -10 463 l37 87 279 0 279 0 0 -45z"/>
<path d="M29117 9184 c-4 -4 -7 -229 -7 -501 l0 -493 -960 0 -960 0 0 -130 0
-130 960 0 960 0 0 -1108 c0 -1241 4 -1176 -71 -1257 -72 -78 -201 -115 -406
-115 l-73 0 0 -126 0 -126 203 5 c215 5 260 13 361 64 67 34 156 125 189 193
58 118 57 94 57 1333 l0 1137 315 0 315 0 0 130 0 130 -312 2 -313 3 -5 495
-5 495 -121 3 c-66 1 -123 -1 -127 -4z"/>
<path d="M14258 8603 l-3 -538 -197 -3 -198 -2 0 380 0 380 -125 0 -125 0 2
-497 3 -498 753 -3 c499 -1 752 1 752 8 0 5 0 229 0 498 l0 487 -120 3 -120 3
0 -381 0 -380 -187 2 -188 3 -3 538 -2 537 -120 0 -120 0 -2 -537z"/>
<path d="M13236 7971 c-60 -142 -223 -463 -300 -590 -121 -199 -267 -403 -388
-544 -32 -38 -58 -74 -58 -82 0 -17 122 -225 132 -225 9 0 159 179 273 325 42
55 81 102 86 103 5 2 9 -393 9 -912 l0 -916 120 0 120 0 0 1119 0 1118 57 104
c100 184 227 464 219 484 -3 9 -149 97 -216 130 -3 2 -27 -49 -54 -114z"/>
<path d="M18664 7947 c-2 -7 -3 -62 -2 -123 l3 -109 1218 -3 1217 -2 0 125 0
125 -1215 0 c-995 0 -1217 -2 -1221 -13z"/>
<path d="M13683 7414 c-2 -5 -2 -59 -1 -120 l3 -109 668 -3 668 -2 -3 120 -3
120 -664 3 c-462 1 -665 -1 -668 -9z"/>
<path d="M27805 7290 c-55 -33 -104 -61 -108 -63 -5 -1 40 -101 100 -222 60
-121 169 -352 243 -512 74 -161 138 -293 142 -293 18 0 243 140 240 150 -8 34
-498 1000 -506 1000 -6 -1 -56 -28 -111 -60z"/>
<path d="M18664 7267 c-7 -20 0 -237 9 -237 4 0 552 0 1217 0 l1210 0 0 125 0
125 -1215 0 c-994 0 -1217 -2 -1221 -13z"/>
<path d="M13733 6508 c7 -298 0 -405 -38 -555 -43 -167 -144 -335 -255 -419
-28 -21 -50 -39 -50 -40 0 -4 131 -228 136 -233 7 -8 111 88 174 162 126 148
209 313 257 514 22 95 26 137 32 358 l6 250 315 0 315 0 3 -240 c3 -298 -7
-399 -47 -478 l-30 -57 66 -113 c36 -61 69 -116 74 -121 10 -11 616 496 618
518 1 7 -78 149 -108 195 -7 10 -46 -18 -167 -122 l-159 -135 -3 394 -2 394
-572 0 -571 0 6 -272z"/>
<path d="M18730 6583 c0 -5 0 -300 0 -658 l0 -650 1155 -3 1155 -2 0 660 0
660 -1155 0 c-635 0 -1155 -3 -1155 -7z m2058 -655 l2 -418 -905 0 -905 0 0
413 c0 228 3 417 7 420 3 4 410 6 902 5 l896 -3 3 -417z"/>
<path d="M18307 3880 c-362 -66 -643 -250 -825 -541 -253 -403 -267 -1082 -31
-1495 165 -288 423 -466 794 -546 78 -17 413 -16 520 1 151 24 361 84 389 111
11 11 -75 162 -89 156 -62 -27 -218 -70 -294 -81 -127 -20 -362 -19 -474 0
-355 63 -619 291 -731 630 -44 134 -57 213 -63 387 -10 279 28 490 122 679 58
117 94 168 174 249 159 160 365 252 630 281 184 20 445 -12 578 -71 25 -11 50
-17 54 -13 9 9 89 150 89 157 0 13 -160 67 -255 86 -161 32 -440 37 -588 10z"/>
<path d="M19500 2610 l0 -1290 100 0 100 0 0 573 c0 314 4 600 9 634 23 156
159 333 311 406 92 44 144 56 236 57 219 1 374 -127 436 -360 21 -83 22 -102
25 -697 l4 -613 105 0 104 0 0 573 c0 334 -4 608 -10 657 -43 346 -218 558
-509 616 -235 46 -505 -54 -654 -243 l-52 -67 -3 522 -2 522 -100 0 -100 0 0
-1290z"/>
<path d="M24905 3874 c-79 -6 -306 -34 -332 -40 l-23 -6 0 -1254 0 -1254 105
0 105 0 0 530 0 531 63 -8 c121 -16 384 -8 488 14 382 82 610 317 650 669 24
221 -33 430 -156 571 -93 106 -261 194 -435 228 -83 16 -358 27 -465 19z m434
-204 c278 -68 434 -280 418 -565 -6 -90 -33 -198 -68 -266 -26 -53 -116 -147
-174 -185 -74 -47 -207 -90 -320 -104 -107 -14 -295 -9 -382 10 l-53 12 0 549
0 549 23 5 c120 30 427 27 556 -5z"/>
<path d="M12485 3848 c2 -7 40 -150 84 -318 44 -168 159 -609 256 -980 97
-371 209 -799 249 -950 l72 -275 97 -3 c53 -1 97 -1 97 2 0 3 15 56 34 118 19
62 39 129 44 148 5 19 49 168 97 330 48 162 93 315 100 340 7 25 47 160 88
300 134 453 148 503 184 630 19 69 45 172 58 228 13 57 26 106 29 109 5 6 9
-7 26 -102 24 -129 87 -380 274 -1105 108 -415 210 -810 228 -877 l31 -123 97
0 98 0 25 83 c14 45 67 222 117 392 90 302 191 645 330 1110 213 717 280 942
280 948 0 4 -47 7 -104 7 l-105 0 -25 -82 c-13 -46 -55 -186 -91 -313 -73
-253 -104 -358 -195 -670 -54 -186 -102 -354 -199 -700 -16 -55 -48 -178 -72
-273 -28 -113 -46 -167 -51 -155 -3 10 -19 79 -34 153 -29 146 -175 713 -478
1857 -25 95 -46 175 -46 178 0 3 -44 5 -98 5 l-99 0 -86 -302 c-148 -517 -332
-1154 -395 -1368 -51 -172 -110 -392 -137 -514 -3 -15 -8 -26 -11 -23 -3 3
-17 54 -30 114 -33 144 -140 575 -269 1078 -58 226 -140 546 -182 713 l-77
302 -107 0 c-82 0 -107 -3 -104 -12z"/>
<path d="M22990 3340 l0 -200 -150 0 -150 0 0 -90 0 -90 150 0 150 0 0 -604
c0 -378 4 -634 11 -682 28 -203 124 -333 278 -378 102 -30 357 -12 390 28 7 9
-1 30 -29 77 l-38 64 -119 0 c-111 0 -121 2 -165 28 -38 22 -53 40 -80 94
l-33 68 -3 652 -3 653 249 0 c137 0 251 2 253 4 2 2 3 43 1 90 l-3 86 -250 0
-249 0 0 200 0 200 -105 0 -105 0 0 -200z"/>
<path d="M16141 3165 c-98 -22 -160 -44 -226 -81 -275 -152 -435 -478 -435
-887 0 -486 260 -829 683 -903 109 -19 314 -14 443 11 128 24 284 82 284 105
0 7 -64 124 -76 139 -2 2 -35 -8 -74 -23 -104 -38 -224 -56 -379 -56 -159 0
-231 14 -333 66 -121 61 -230 183 -278 312 -28 74 -57 207 -65 305 l-7 77 655
0 656 0 7 57 c4 31 1 108 -5 170 -40 375 -219 622 -506 699 -85 22 -264 27
-344 9z m234 -176 c77 -14 169 -57 222 -103 97 -85 167 -241 179 -400 l7 -86
-541 0 c-297 0 -543 3 -545 8 -11 17 45 198 87 280 74 142 181 239 310 281
101 33 182 39 281 20z"/>
<path d="M21732 3166 c-106 -21 -207 -53 -282 -91 -101 -53 -97 -44 -55 -119
20 -36 41 -68 46 -71 5 -3 28 6 52 20 117 68 315 107 455 88 149 -19 247 -87
304 -209 32 -68 57 -187 58 -271 l0 -53 -37 0 c-79 -1 -273 -19 -368 -35 -303
-51 -529 -188 -618 -376 -46 -98 -58 -153 -58 -263 0 -152 44 -261 145 -361
102 -102 218 -145 389 -145 204 1 370 70 508 212 l56 58 7 -73 c4 -39 9 -91
12 -114 l6 -43 95 0 95 0 -6 43 c-4 23 -11 317 -15 652 -9 637 -10 652 -56
790 -59 175 -196 301 -380 351 -83 22 -262 27 -353 10z m576 -1091 c2 -182 1
-206 -19 -268 -66 -208 -264 -346 -495 -347 -165 0 -278 72 -330 210 -27 72
-24 220 6 295 32 82 110 162 203 209 130 66 353 106 562 102 l70 -1 3 -200z"/>
<path d="M26495 3165 c-44 -9 -109 -24 -144 -36 -69 -22 -201 -85 -201 -96 0
-4 18 -37 40 -74 l40 -68 64 30 c185 87 406 102 551 38 58 -26 128 -89 160
-143 32 -55 62 -172 70 -272 l6 -82 -123 -7 c-404 -22 -656 -108 -816 -280
-71 -76 -114 -160 -136 -267 -20 -94 -20 -143 -2 -230 21 -96 60 -171 127
-242 109 -117 233 -161 429 -153 191 7 332 67 467 200 34 33 64 59 66 56 3 -2
8 -51 13 -109 l9 -105 98 -3 99 -3 -7 43 c-15 86 -22 314 -24 772 -2 492 -6
542 -50 669 -62 178 -190 300 -363 347 -107 29 -264 35 -373 15z m580 -1110
l0 -220 -37 -78 c-28 -58 -55 -96 -105 -145 -112 -111 -235 -157 -398 -150
-111 5 -184 36 -244 104 -50 57 -71 117 -78 220 -13 182 72 318 249 399 126
57 344 95 538 91 l75 -1 0 -220z"/>
<path d="M27470 3131 c0 -6 79 -209 176 -453 97 -244 250 -630 341 -858 133
-334 164 -422 160 -450 -2 -19 -27 -81 -55 -137 -134 -269 -318 -461 -524
-546 -21 -9 -38 -19 -38 -24 0 -4 15 -35 33 -70 l32 -63 53 0 c29 0 58 4 65
10 7 5 48 34 92 62 195 129 342 324 496 658 37 80 213 514 393 965 179 451
333 835 341 853 28 62 27 63 -92 60 l-108 -3 -177 -475 c-206 -551 -304 -818
-349 -948 -17 -51 -33 -91 -35 -89 -2 2 -26 69 -54 150 -42 123 -188 498 -478
1224 l-57 143 -107 0 c-61 0 -108 -4 -108 -9z"/>
</g>
</svg>
