<?xml version="1.0" standalone="no"?>
<!DOCTYPE svg PUBLIC "-//W3C//DTD SVG 20010904//EN"
 "http://www.w3.org/TR/2001/REC-SVG-20010904/DTD/svg10.dtd">
<svg version="1.0" xmlns="http://www.w3.org/2000/svg"
 width="800.000000pt" height="245.000000pt" viewBox="0 0 800.000000 245.000000"
 preserveAspectRatio="xMidYMid meet">

<g transform="translate(0.000000,245.000000) scale(0.100000,-0.100000)"
fill="#000000" stroke="none">
<path d="M1368 2433 c18 -2 45 -2 60 0 15 2 0 4 -33 4 -33 0 -45 -2 -27 -4z"/>
<path d="M1208 2423 c12 -2 30 -2 40 0 9 3 -1 5 -23 4 -22 0 -30 -2 -17 -4z"/>
<path d="M1548 2423 c12 -2 30 -2 40 0 9 3 -1 5 -23 4 -22 0 -30 -2 -17 -4z"/>
<path d="M1133 2413 c9 -2 23 -2 30 0 6 3 -1 5 -18 5 -16 0 -22 -2 -12 -5z"/>
<path d="M1623 2413 c9 -2 25 -2 35 0 9 3 1 5 -18 5 -19 0 -27 -2 -17 -5z"/>
<path d="M1068 2403 c7 -3 16 -2 19 1 4 3 -2 6 -13 5 -11 0 -14 -3 -6 -6z"/>
<path d="M1698 2403 c6 -2 18 -2 25 0 6 3 1 5 -13 5 -14 0 -19 -2 -12 -5z"/>
<path d="M1028 2393 c7 -3 16 -2 19 1 4 3 -2 6 -13 5 -11 0 -14 -3 -6 -6z"/>
<path d="M1755 2390 c11 -5 29 -8 40 -8 16 0 15 2 -5 8 -34 11 -60 11 -35 0z"/>
<path d="M978 2383 c6 -2 18 -2 25 0 6 3 1 5 -13 5 -14 0 -19 -2 -12 -5z"/>
<path d="M1828 2373 c7 -3 16 -2 19 1 4 3 -2 6 -13 5 -11 0 -14 -3 -6 -6z"/>
<path d="M1870 2360 c8 -5 22 -9 30 -9 10 0 8 3 -5 9 -27 12 -43 12 -25 0z"/>
<path d="M785 2319 c-22 -10 -29 -16 -15 -13 28 7 80 33 65 33 -5 0 -28 -9
-50 -20z"/>
<path d="M2055 2286 c61 -29 137 -69 170 -90 40 -25 50 -28 30 -11 -31 27
-280 155 -299 155 -6 -1 39 -25 99 -54z"/>
<path d="M703 2285 c-18 -8 -33 -16 -33 -19 0 -6 51 14 65 26 13 11 5 10 -32
-7z"/>
<path d="M603 2230 c-29 -17 -53 -33 -53 -36 0 -5 88 43 105 58 17 15 0 8 -52
-22z"/>
<path d="M4263 2218 c-6 -7 -16 -38 -23 -68 -18 -79 -57 -184 -100 -270 -37
-75 -37 -75 -19 -104 l18 -29 17 36 c10 21 21 37 25 37 3 0 10 -24 13 -52 10
-73 36 -174 58 -227 l19 -44 -26 -38 c-14 -22 -54 -69 -89 -107 -63 -67 -64
-68 -49 -96 l15 -28 45 43 c25 24 65 70 88 101 l43 57 51 -67 c52 -70 107
-132 116 -132 2 0 11 12 19 27 14 27 12 29 -38 84 -29 31 -66 77 -83 103 l-31
47 24 53 c35 76 63 195 77 319 l11 107 28 0 c24 0 28 4 28 30 l0 30 -116 0
c-116 0 -116 0 -109 23 25 82 43 162 39 169 -8 12 -40 10 -51 -4z m122 -275
c-2 -16 -9 -67 -15 -115 -12 -98 -50 -240 -65 -240 -24 1 -82 284 -71 347 l7
35 74 0 75 0 -5 -27z"/>
<path d="M4857 2222 c-2 -4 -15 -38 -27 -77 -36 -109 -94 -238 -150 -331 -51
-84 -51 -86 -34 -111 16 -26 17 -26 31 -7 8 10 29 44 46 74 l32 55 5 -300 5
-300 30 0 30 0 5 385 6 385 37 90 c20 50 36 95 37 101 0 14 -47 47 -53 36z"/>
<path d="M5243 2213 l-22 -15 24 -49 c14 -26 25 -51 25 -54 0 -3 -76 -5 -170
-5 l-170 0 0 -30 0 -30 359 0 360 0 -3 28 -3 27 -169 3 c-104 2 -163 6 -155
12 12 7 10 18 -12 67 -14 32 -30 59 -34 60 -4 1 -18 -5 -30 -14z"/>
<path d="M6210 2160 l0 -70 -225 0 -225 0 0 -30 0 -30 225 0 226 0 -3 -92 -3
-93 -142 -3 -143 -3 0 -32 c0 -48 85 -180 181 -281 l80 -85 -44 -25 c-75 -44
-228 -101 -324 -121 -38 -8 -39 -11 -14 -45 l19 -24 79 22 c43 13 137 52 209
87 l131 65 79 -45 c91 -52 198 -98 268 -116 44 -11 50 -10 62 6 8 11 14 22 14
25 0 3 -33 16 -72 29 -80 25 -199 78 -265 117 l-42 25 74 71 c112 105 224 283
197 311 -9 8 -59 14 -145 17 l-132 5 -3 93 -3 92 231 0 231 0 -3 28 -3 27
-227 3 -228 2 0 70 0 70 -30 0 -30 0 0 -70z m248 -432 c-35 -67 -193 -238
-220 -238 -36 0 -171 147 -232 253 l-28 47 257 0 256 0 -33 -62z"/>
<path d="M3655 2201 c-10 -34 -84 -141 -131 -191 l-45 -48 17 -33 17 -33 35
39 c73 84 182 249 171 259 -7 6 -48 26 -53 26 -2 0 -7 -9 -11 -19z"/>
<path d="M6995 2164 c-25 -87 -100 -254 -155 -348 -45 -76 -49 -88 -38 -110 6
-14 15 -26 19 -26 5 0 27 33 51 72 l43 73 3 -303 2 -302 30 0 30 0 2 378 3
377 45 109 c42 104 43 109 25 122 -32 24 -43 16 -60 -42z"/>
<path d="M7550 2100 l0 -120 -235 0 -235 0 0 -35 0 -35 235 0 235 0 0 -283 c0
-323 2 -315 -85 -324 -42 -5 -45 -8 -45 -34 0 -28 1 -29 53 -29 58 0 107 24
129 62 10 17 14 97 16 316 l3 292 75 0 74 0 0 35 0 35 -75 0 -75 0 0 120 0
120 -35 0 -35 0 0 -120z"/>
<path d="M3898 2078 l-3 -131 -45 0 -45 0 -3 91 -3 92 -29 0 -30 0 0 -120 0
-120 185 0 185 0 0 120 0 120 -30 0 -29 0 -3 -92 -3 -91 -40 0 -40 0 -3 131
-3 132 -29 0 -29 0 -3 -132z"/>
<path d="M450 2126 c-78 -61 -137 -116 -126 -116 5 0 34 24 65 53 31 28 72 64
91 79 19 15 33 27 30 28 -3 0 -30 -20 -60 -44z"/>
<path d="M2330 2124 c71 -60 160 -146 160 -154 0 -4 -39 -24 -87 -45 -88 -38
-144 -71 -69 -41 79 33 161 70 169 76 9 8 -130 143 -183 179 -27 17 -24 14 10
-15z"/>
<path d="M283 1970 c-61 -69 -116 -150 -159 -238 -26 -51 -44 -95 -42 -98 3
-2 15 20 28 50 30 75 102 189 162 259 27 31 47 57 44 57 -3 0 -18 -14 -33 -30z"/>
<path d="M3627 1876 c-29 -60 -88 -155 -152 -242 -6 -8 -4 -22 5 -40 l15 -26
47 53 48 54 0 -228 0 -228 28 3 27 3 5 285 5 285 33 62 32 62 -29 15 -29 15
-35 -73z"/>
<path d="M4984 1905 c-4 -8 -4 -22 0 -30 5 -13 47 -15 301 -15 l295 0 0 30 0
30 -295 0 c-254 0 -296 -2 -301 -15z"/>
<path d="M2142 1808 c-62 -28 -111 -53 -109 -55 4 -3 227 93 236 102 12 12
-23 -1 -127 -47z"/>
<path d="M2528 1765 c-48 -28 -91 -55 -95 -60 -8 -8 76 37 142 77 17 10 33 18
37 18 4 0 26 -35 47 -77 22 -43 40 -75 41 -70 0 8 -63 134 -77 153 -5 7 -38
-7 -95 -41z"/>
<path d="M3760 1760 l0 -30 166 0 165 0 -3 28 -3 27 -162 3 -163 2 0 -30z"/>
<path d="M7230 1752 l-22 -18 53 -114 c29 -63 56 -119 59 -123 8 -9 60 12 60
25 0 10 -119 248 -124 248 -2 0 -14 -8 -26 -18z"/>
<path d="M1995 1740 c-3 -6 1 -7 9 -4 18 7 21 14 7 14 -6 0 -13 -4 -16 -10z"/>
<path d="M4982 1723 l3 -28 298 -3 297 -2 0 30 0 30 -301 0 -300 0 3 -27z"/>
<path d="M1940 1715 c-14 -8 -20 -14 -15 -14 6 0 21 6 35 14 14 8 21 14 15 14
-5 0 -21 -6 -35 -14z"/>
<path d="M2388 1684 c-38 -20 -36 -28 2 -9 17 9 30 18 30 20 0 7 -1 6 -32 -11z"/>
<path d="M1860 1680 c-8 -5 -10 -10 -5 -10 6 0 17 5 25 10 8 5 11 10 5 10 -5
0 -17 -5 -25 -10z"/>
<path d="M1795 1651 c-22 -11 -37 -20 -34 -20 10 -1 79 29 79 34 0 7 0 7 -45
-14z"/>
<path d="M2318 1644 c-38 -20 -36 -28 2 -9 17 9 30 18 30 20 0 7 -1 6 -32 -11z"/>
<path d="M2701 1630 c0 -8 4 -22 9 -30 12 -18 12 -2 0 25 -6 13 -9 15 -9 5z"/>
<path d="M3770 1543 c0 -107 -12 -153 -51 -197 -26 -30 -28 -37 -18 -60 7 -14
15 -26 19 -26 3 0 21 15 38 33 46 47 72 122 72 207 l0 70 80 0 80 0 0 -83 c0
-46 -5 -88 -11 -94 -7 -7 -5 -20 9 -42 l20 -32 76 66 c75 66 76 66 59 91 l-16
25 -31 -30 c-18 -17 -35 -31 -39 -31 -4 0 -7 43 -7 95 l0 95 -140 0 -140 0 0
-87z"/>
<path d="M1557 1548 c-87 -39 -156 -72 -154 -74 3 -3 317 133 326 142 13 12
-29 -4 -172 -68z"/>
<path d="M2185 1569 c-49 -28 -94 -56 -100 -62 -5 -6 10 1 35 15 25 14 71 40
103 58 48 27 66 40 55 40 -2 0 -43 -23 -93 -51z"/>
<path d="M56 1564 c-4 -14 -5 -28 -3 -31 3 -2 8 8 11 23 4 14 5 28 3 31 -3 2
-8 -8 -11 -23z"/>
<path d="M660 1586 c0 -2 11 -6 25 -8 13 -3 22 -1 19 3 -5 9 -44 13 -44 5z"/>
<path d="M630 1565 c-7 -9 -11 -17 -9 -20 3 -2 10 5 17 15 14 24 10 26 -8 5z"/>
<path d="M5000 1420 l0 -160 285 0 285 0 0 160 0 160 -285 0 -285 0 0 -160z
m508 -2 l-3 -103 -220 0 -220 0 -3 103 -3 102 226 0 226 0 -3 -102z"/>
<path d="M723 1564 c3 -6 34 -30 68 -54 34 -24 60 -39 56 -34 -3 6 -34 30 -68
54 -34 24 -60 39 -56 34z"/>
<path d="M2732 1530 c0 -14 2 -19 5 -12 2 6 2 18 0 25 -3 6 -5 1 -5 -13z"/>
<path d="M42 1500 c0 -14 2 -19 5 -12 2 6 2 18 0 25 -3 6 -5 1 -5 -13z"/>
<path d="M620 1505 c0 -5 5 -17 10 -25 5 -8 10 -10 10 -5 0 6 -5 17 -10 25 -5
8 -10 11 -10 5z"/>
<path d="M2044 1484 c-18 -14 -18 -15 4 -4 12 6 22 13 22 15 0 8 -5 6 -26 -11z"/>
<path d="M2741 1484 c0 -11 3 -14 6 -6 3 7 2 16 -1 19 -3 4 -6 -2 -5 -13z"/>
<path d="M32 1445 c0 -16 2 -22 5 -12 2 9 2 23 0 30 -3 6 -5 -1 -5 -18z"/>
<path d="M862 1464 c4 -6 35 -30 70 -54 35 -24 56 -36 48 -28 -23 23 -125 94
-118 82z"/>
<path d="M1873 1387 c-78 -46 -146 -87 -150 -92 -10 -11 -13 -12 155 85 121
70 153 91 140 90 -2 0 -67 -38 -145 -83z"/>
<path d="M1263 1417 c-93 -43 -145 -74 -63 -39 88 38 175 80 165 80 -5 0 -51
-18 -102 -41z"/>
<path d="M2752 1435 c0 -16 2 -22 5 -12 2 9 2 23 0 30 -3 6 -5 -1 -5 -18z"/>
<path d="M661 1415 c0 -5 8 -26 19 -45 11 -19 19 -30 19 -25 0 6 -8 26 -19 45
-11 19 -19 31 -19 25z"/>
<path d="M24 1290 c0 -63 1 -89 3 -57 2 31 2 83 0 115 -2 31 -3 5 -3 -58z"/>
<path d="M1014 1356 c11 -9 27 -16 35 -15 14 0 14 1 1 6 -8 3 -24 10 -35 15
-20 9 -20 9 -1 -6z"/>
<path d="M2763 1290 c0 -41 2 -58 4 -37 2 20 2 54 0 75 -2 20 -4 3 -4 -38z"/>
<path d="M1098 1343 c7 -3 16 -2 19 1 4 3 -2 6 -13 5 -11 0 -14 -3 -6 -6z"/>
<path d="M721 1285 c0 -5 6 -21 14 -35 8 -14 14 -20 14 -15 0 6 -6 21 -14 35
-8 14 -14 21 -14 15z"/>
<path d="M1678 1274 c-38 -20 -36 -28 2 -9 17 9 30 18 30 20 0 7 -1 6 -32 -11z"/>
<path d="M1588 1224 c-38 -20 -36 -28 2 -9 17 9 30 18 30 20 0 7 -1 6 -32 -11z"/>
<path d="M761 1195 c0 -5 6 -21 14 -35 8 -14 14 -20 14 -15 0 6 -6 21 -14 35
-8 14 -14 21 -14 15z"/>
<path d="M1493 1169 c-29 -17 -53 -33 -53 -36 0 -5 89 44 105 58 16 16 1 9
-52 -22z"/>
<path d="M2752 1155 c0 -16 2 -22 5 -12 2 9 2 23 0 30 -3 6 -5 -1 -5 -18z"/>
<path d="M32 1145 c0 -16 2 -22 5 -12 2 9 2 23 0 30 -3 6 -5 -1 -5 -18z"/>
<path d="M791 1125 c0 -5 11 -30 24 -55 13 -25 24 -40 24 -35 0 6 -11 30 -24
55 -13 25 -24 41 -24 35z"/>
<path d="M1373 1099 c-29 -17 -53 -33 -53 -36 0 -5 89 44 105 58 16 16 1 9
-52 -22z"/>
<path d="M2735 1080 c-4 -23 -5 -43 -2 -46 2 -3 7 14 11 37 4 23 5 44 2 46 -2
2 -7 -14 -11 -37z"/>
<path d="M1200 999 c-58 -34 -109 -66 -115 -72 -13 -13 -10 -12 118 62 91 54
118 71 105 71 -2 0 -50 -28 -108 -61z"/>
<path d="M61 1010 c0 -8 4 -22 9 -30 12 -18 12 -2 0 25 -6 13 -9 15 -9 5z"/>
<path d="M840 1017 c-1 -24 55 -110 83 -127 40 -25 58 -25 107 0 56 28 50 32
-10 7 -47 -20 -51 -20 -85 -4 -25 12 -43 32 -64 74 -17 32 -30 54 -31 50z"/>
<path d="M2701 959 c-6 -18 -9 -34 -7 -36 2 -2 9 10 15 28 6 18 9 34 7 36 -2
2 -9 -10 -15 -28z"/>
<path d="M86 940 c8 -30 62 -140 69 -140 3 0 -7 26 -23 58 -15 31 -34 68 -40
82 l-12 25 6 -25z"/>
<path d="M4820 935 c-61 -19 -125 -76 -157 -139 -36 -69 -44 -198 -18 -277 23
-67 81 -130 146 -158 58 -25 175 -30 237 -10 50 16 54 21 36 47 -12 17 -19 20
-34 12 -37 -20 -125 -23 -182 -6 -108 31 -167 133 -155 267 14 162 142 255
299 217 55 -14 60 -14 69 3 5 10 9 22 9 28 0 30 -170 40 -250 16z"/>
<path d="M5172 648 l3 -303 30 0 30 0 5 155 c5 170 11 189 66 215 44 20 76 19
107 -5 37 -30 47 -77 47 -232 l0 -138 30 0 30 0 0 148 c0 81 -5 165 -11 186
-29 105 -155 144 -243 75 l-26 -20 0 110 0 111 -35 0 -35 0 2 -302z"/>
<path d="M6665 942 l-40 -7 0 -295 0 -295 27 -3 27 -3 3 123 3 122 65 3 c83 4
119 16 159 55 42 41 51 65 51 136 0 71 -24 113 -80 142 -45 23 -146 33 -215
22z m169 -66 c46 -19 66 -52 66 -107 0 -85 -67 -135 -170 -127 l-45 3 -3 109
c-1 61 0 116 2 123 7 18 107 17 150 -1z"/>
<path d="M3470 928 c0 -7 34 -142 77 -300 75 -285 76 -288 103 -288 25 0 27 5
95 235 62 209 85 270 85 219 0 -9 25 -115 57 -235 56 -217 56 -219 83 -219 27
0 28 4 117 300 l90 300 -32 0 -32 0 -57 -197 c-31 -109 -63 -216 -70 -237
l-12 -39 -53 199 c-29 109 -57 216 -62 237 -8 32 -14 37 -39 37 -26 0 -30 -5
-45 -57 -70 -249 -124 -416 -128 -403 -4 8 -29 105 -56 215 -28 110 -54 210
-57 223 -5 16 -14 22 -35 22 -16 0 -29 -5 -29 -12z"/>
<path d="M2661 863 c-10 -26 -10 -27 4 -9 8 11 15 23 15 28 0 15 -7 8 -19 -19z"/>
<path d="M6060 821 l0 -51 -36 0 c-31 0 -35 -3 -32 -22 2 -18 11 -24 34 -26
l32 -3 4 -157 c3 -131 6 -161 22 -184 21 -32 73 -52 112 -42 42 10 45 13 34
35 -7 13 -21 19 -43 19 -54 0 -57 9 -57 177 l0 153 55 0 c52 0 55 1 55 25 0
24 -3 25 -54 25 l-55 0 -3 48 c-3 45 -4 47 -35 50 l-33 3 0 -50z"/>
<path d="M2614 783 c-25 -45 -59 -89 -150 -203 l-36 -45 42 45 c77 84 195 250
177 250 -3 0 -18 -21 -33 -47z"/>
<path d="M181 750 c36 -64 157 -198 247 -272 45 -38 82 -65 81 -61 0 4 -34 35
-76 68 -81 64 -171 162 -230 251 -42 63 -54 71 -22 14z"/>
<path d="M4321 778 c-52 -14 -79 -37 -109 -87 -24 -40 -27 -57 -27 -131 0
-106 21 -152 87 -193 38 -24 56 -28 112 -28 66 0 136 15 136 30 0 4 -6 15 -13
24 -11 16 -18 16 -63 6 -93 -21 -170 13 -194 86 -22 66 -21 66 140 68 l145 2
3 34 c8 87 -45 169 -123 190 -46 13 -48 13 -94 -1z m108 -64 c21 -15 51 -70
51 -94 0 -6 -44 -10 -120 -10 -66 0 -120 2 -120 5 0 21 45 87 68 99 36 20 92
20 121 0z"/>
<path d="M5718 775 c-54 -18 -63 -27 -48 -54 9 -19 13 -19 45 -5 76 31 137 10
155 -54 10 -37 16 -34 -80 -52 -113 -21 -160 -66 -160 -154 0 -105 125 -157
224 -92 22 14 24 14 29 -4 3 -14 14 -20 32 -20 l27 0 -4 173 c-2 141 -6 178
-21 204 -32 59 -117 84 -199 58z m162 -256 c0 -74 -49 -129 -116 -129 -38 0
-74 36 -74 74 1 36 15 57 50 76 25 14 118 29 133 22 4 -2 7 -21 7 -43z"/>
<path d="M7088 775 c-55 -18 -63 -27 -46 -54 11 -18 14 -18 39 -5 16 8 46 14
69 14 50 0 90 -34 90 -77 0 -28 -2 -29 -71 -40 -93 -14 -148 -51 -168 -111
-12 -38 -11 -49 3 -85 10 -27 28 -50 48 -62 44 -25 116 -24 161 4 34 21 35 21
40 1 4 -14 14 -20 32 -20 l27 0 -4 174 c-3 157 -5 178 -24 202 -48 65 -114 85
-196 59z m152 -267 c0 -29 -6 -60 -13 -68 -59 -76 -167 -61 -167 23 0 59 51
97 133 97 l47 0 0 -52z"/>
<path d="M7383 768 c2 -7 40 -100 82 -206 l78 -193 -18 -40 c-18 -38 -87 -111
-116 -121 -17 -7 0 -41 23 -46 19 -4 101 69 129 115 28 45 208 491 201 498
-12 12 -52 4 -61 -12 -7 -15 -32 -78 -111 -288 -11 -29 -14 -24 -78 135 -67
165 -67 165 -101 168 -25 3 -32 0 -28 -10z"/>
<path d="M2374 497 l-29 -32 30 25 c17 14 32 26 34 28 2 1 2 4 -1 7 -2 3 -18
-10 -34 -28z"/>
<path d="M2300 439 c-35 -31 -35 -31 -3 -9 18 11 35 25 38 30 10 16 2 11 -35
-21z"/>
<path d="M2205 378 c-77 -49 -210 -108 -320 -144 -55 -18 -95 -33 -88 -33 52
-3 376 135 443 189 37 29 22 24 -35 -12z"/>
<path d="M530 347 l5 -52 3 44 c2 24 0 47 -5 52 -4 4 -6 -15 -3 -44z"/>
<path d="M505 230 c-4 -17 -5 -34 -2 -36 2 -3 7 10 11 27 8 42 0 50 -9 9z"/>
<path d="M865 219 c-16 -7 -14 -8 10 -4 17 3 64 -3 105 -14 87 -22 228 -46
235 -39 3 2 -32 10 -78 17 -45 7 -115 21 -156 32 -83 21 -88 21 -116 8z"/>
<path d="M763 169 c-29 -17 -53 -33 -53 -36 0 -5 89 44 105 58 16 16 1 9 -52
-22z"/>
<path d="M1720 190 c-34 -7 -34 -7 -5 -8 17 0 39 3 50 8 24 10 4 10 -45 0z"/>
<path d="M482 141 c-7 -21 -12 -45 -11 -52 0 -8 7 8 15 35 9 26 13 50 11 52
-2 2 -9 -13 -15 -35z"/>
<path d="M1648 173 c6 -2 18 -2 25 0 6 3 1 5 -13 5 -14 0 -19 -2 -12 -5z"/>
<path d="M1583 163 c9 -2 23 -2 30 0 6 3 -1 5 -18 5 -16 0 -22 -2 -12 -5z"/>
<path d="M1313 153 c48 -2 125 -2 170 0 45 1 6 3 -88 3 -93 0 -130 -2 -82 -3z"/>
<path d="M674 114 c-18 -14 -18 -15 4 -4 12 6 22 13 22 15 0 8 -5 6 -26 -11z"/>
<path d="M618 84 c-38 -20 -36 -28 2 -9 17 9 30 18 30 20 0 7 -1 6 -32 -11z"/>
<path d="M461 54 c-1 -24 17 -44 39 -43 10 0 9 3 -5 8 -11 4 -23 19 -26 32 -6
21 -7 21 -8 3z"/>
<path d="M548 44 c-38 -20 -36 -28 2 -9 17 9 30 18 30 20 0 7 -1 6 -32 -11z"/>
</g>
</svg>
