<?xml version="1.0" standalone="no"?>
<!DOCTYPE svg PUBLIC "-//W3C//DTD SVG 20010904//EN"
 "http://www.w3.org/TR/2001/REC-SVG-20010904/DTD/svg10.dtd">
<svg version="1.0" xmlns="http://www.w3.org/2000/svg"
 width="1588.000000pt" height="1592.000000pt" viewBox="0 0 1588.000000 1592.000000"
 preserveAspectRatio="xMidYMid meet">

<g transform="translate(0.000000,1592.000000) scale(0.100000,-0.100000)"
fill="#000000" stroke="none">
<path d="M7310 12185 c-379 -12 -399 -13 -482 -39 -92 -27 -172 -70 -225 -119
-53 -49 -66 -108 -67 -292 -1 -174 6 -220 30 -211 50 19 182 30 429 34 979 18
1220 -13 1594 -205 174 -90 280 -163 387 -268 188 -184 292 -367 360 -630 26
-101 26 -405 0 -525 -24 -113 -97 -261 -188 -385 -98 -132 -207 -230 -407
-365 -123 -83 -512 -278 -717 -360 -38 -16 -104 -44 -145 -62 -85 -39 -382
-164 -480 -202 -36 -14 -109 -46 -163 -71 -53 -25 -98 -45 -100 -45 -6 0 -192
-86 -246 -114 -324 -164 -500 -269 -643 -383 -267 -213 -462 -417 -603 -633
-202 -310 -278 -495 -366 -895 -21 -94 -17 -541 5 -675 92 -548 225 -860 484
-1130 132 -139 270 -232 538 -365 192 -95 280 -124 640 -210 227 -55 607 -74
1096 -57 357 12 425 21 639 81 179 50 260 81 485 186 92 43 366 228 470 318
483 416 745 993 745 1642 0 220 -21 383 -82 635 -43 178 -71 257 -138 394
-221 455 -529 785 -879 943 -53 23 -102 43 -109 43 -8 0 -53 -26 -100 -57
-181 -119 -552 -293 -679 -318 -18 -4 -35 -10 -38 -14 -2 -5 44 -21 103 -36
207 -53 461 -154 567 -226 343 -232 587 -616 672 -1059 14 -75 18 -144 18
-330 0 -224 -2 -240 -28 -340 -66 -250 -146 -417 -285 -595 -235 -300 -685
-540 -1098 -586 -232 -25 -1156 -14 -1344 16 -246 40 -501 171 -696 357 -191
183 -297 373 -339 609 -27 151 -17 491 18 653 27 122 38 162 65 231 59 156
183 375 282 499 147 186 388 393 602 519 156 92 543 280 848 412 41 18 118 52
170 75 52 23 178 76 280 117 307 124 699 317 875 430 172 112 245 172 400 327
224 226 348 408 455 671 59 147 100 351 100 504 0 126 -25 405 -45 506 -34
166 -140 427 -235 578 -257 405 -635 727 -1040 887 -248 97 -405 127 -740 140
-129 5 -239 9 -245 8 -5 0 -188 -7 -405 -13z"/>
<path d="M5963 11937 c-102 -59 -245 -176 -315 -258 -78 -92 -177 -239 -190
-283 -10 -32 -12 -390 -10 -1696 3 -1645 8 -2011 27 -2016 6 -2 32 28 58 66
27 37 59 79 70 91 12 13 39 44 60 69 86 100 217 226 307 292 52 39 101 78 108
87 11 13 13 310 12 1681 -2 1742 -5 2020 -24 2020 -6 0 -52 -24 -103 -53z"/>
<path d="M6712 10865 c-78 -24 -140 -81 -178 -163 -76 -166 40 -361 226 -379
102 -10 191 32 250 118 36 53 36 53 95 39 47 -11 1287 -16 1327 -5 29 7 36 1
103 -81 55 -69 163 -98 260 -69 65 18 132 74 172 143 22 36 25 51 20 94 -14
114 -146 252 -269 282 -62 15 -173 -33 -224 -97 l-27 -34 -706 3 -706 2 -65
64 c-93 92 -173 116 -278 83z"/>
<path d="M6704 10046 c-66 -21 -131 -72 -164 -129 -24 -43 -30 -63 -30 -115 0
-127 53 -217 161 -271 82 -41 134 -47 200 -26 60 20 136 89 160 144 l14 33
100 -6 c55 -3 361 -8 680 -12 319 -3 590 -7 602 -10 13 -2 30 -19 39 -37 27
-53 55 -77 111 -93 48 -14 55 -14 87 1 89 42 286 299 286 373 0 87 -171 177
-288 151 -60 -13 -114 -42 -148 -80 -64 -71 -64 -71 -93 -64 -16 3 -330 7
-699 8 l-670 3 -60 56 c-90 83 -183 107 -288 74z"/>
<path d="M6718 9216 c-140 -57 -209 -170 -195 -318 7 -74 46 -138 118 -193 47
-35 58 -40 108 -39 72 0 144 36 288 143 18 13 72 34 120 46 98 25 365 129 535
208 94 44 108 53 87 58 -13 4 -185 7 -382 8 l-358 1 -52 41 c-29 23 -66 48
-84 55 -48 21 -121 17 -185 -10z"/>
<path d="M8585 7316 c-28 -12 -66 -40 -84 -62 l-35 -39 -675 0 c-664 0 -677 0
-721 -21 -25 -11 -63 -38 -85 -58 -38 -36 -74 -65 -225 -179 -36 -27 -66 -53
-68 -57 -6 -15 53 -61 91 -71 84 -22 169 9 229 84 l39 50 702 -1 c386 -1 707
-2 712 -2 6 0 19 -15 30 -32 27 -48 62 -78 124 -106 46 -21 63 -24 121 -19 92
8 139 34 205 114 60 73 80 126 70 182 -15 81 -101 181 -190 220 -68 30 -173
29 -240 -3z"/>
<path d="M6710 6534 c-85 -31 -155 -96 -185 -172 -22 -54 -17 -161 10 -217 57
-117 220 -200 327 -164 73 24 130 69 162 127 25 47 31 53 50 45 11 -4 323 -9
691 -10 369 -1 680 -2 691 -2 14 -1 26 -12 34 -31 28 -67 153 -140 239 -140
92 0 209 79 255 172 33 65 35 161 7 225 -42 91 -162 173 -256 173 -51 0 -131
-28 -170 -58 -15 -12 -40 -40 -57 -63 l-30 -42 -232 9 c-127 5 -446 9 -708 9
l-478 0 -46 53 c-25 29 -65 62 -88 74 -55 28 -156 34 -216 12z"/>
<path d="M6703 5680 c-67 -27 -148 -100 -176 -159 -30 -63 -30 -169 1 -227 26
-51 104 -129 157 -157 61 -33 173 -30 240 5 60 31 76 48 107 113 l23 50 50 -3
c28 -1 343 -4 700 -7 358 -2 656 -5 663 -5 6 0 12 -8 12 -18 0 -32 71 -103
130 -130 65 -30 150 -34 203 -9 59 29 134 104 163 165 66 139 5 295 -145 369
-50 24 -172 24 -222 0 -46 -23 -90 -63 -113 -102 l-17 -30 -707 3 -707 3 -50
55 c-86 93 -207 125 -312 84z"/>
</g>
</svg>
